<?xml version="1.0" encoding="iso-8859-1"?>
<!-- Generator: Adobe Illustrator 19.0.0, SVG Export Plug-In . SVG Version: 6.00 Build 0)  -->
<svg version="1.1" id="Capa_1" xmlns="http://www.w3.org/2000/svg" xmlns:xlink="http://www.w3.org/1999/xlink" x="0px" y="0px"
	 viewBox="0 0 480 480" style="enable-background:new 0 0 480 480;" xml:space="preserve">
<g>
	<path style="fill:#4799CF;" d="M456,448h-16c-8.837,0-16-7.163-16-16V296c0-8.837,7.163-16,16-16h32v152
		C472,440.837,464.837,448,456,448z"/>
	<path style="fill:#4799CF;" d="M48,272h16c8.837,0,16,7.163,16,16v136c0,8.837-7.163,16-16,16H48c-8.837,0-16-7.163-16-16V288
		C32,279.164,39.163,272,48,272z"/>
</g>
<path style="fill:#EAEAE8;" d="M440,296v-32c0-8.837-7.163-16-16-16V109.472C423.999,85.723,434.551,63.2,452.8,48L472,32v264H440z"
	/>
<g>
	<path style="fill:#6CBAE5;" d="M440,280h32l0,0v32l0,0h-48l0,0v-16C424,287.164,431.163,280,440,280z"/>
	<path style="fill:#6CBAE5;" d="M416,336h32v16h-32V336z"/>
	<path style="fill:#6CBAE5;" d="M416,368h32v16h-32V368z"/>
	<path style="fill:#6CBAE5;" d="M416,400h32v16h-32V400z"/>
	<path style="fill:#6CBAE5;" d="M24,328h32v16H24V328z"/>
	<path style="fill:#6CBAE5;" d="M24,360h32v16H24V360z"/>
	<path style="fill:#6CBAE5;" d="M24,392h32v16H24V392z"/>
</g>
<g>
	<path style="fill:#EAEAE8;" d="M40,168h32v112H40V168z"/>
	<path style="fill:#EAEAE8;" d="M56,176c-26.512,0-48-21.488-48-80V40h96v56C104,154.512,82.512,176,56,176z"/>
</g>
<circle style="fill:#EBEBEB;" cx="248" cy="256" r="144"/>
<g>
	<circle style="fill:#DBDBDB;" cx="248" cy="256" r="88"/>
	<path style="fill:#DBDBDB;" d="M32,40h16v64H32V40z"/>
	<path style="fill:#DBDBDB;" d="M64,40h16v64H64V40z"/>
</g>
<path style="fill:#6CBAE5;" d="M48,272h16c8.837,0,16,7.163,16,16v16l0,0H32l0,0v-16C32,279.164,39.163,272,48,272z"/>
<path d="M64,448c13.255,0,24-10.745,24-24l0,0V288c-0.021-6.788-2.93-13.246-8-17.76v-92.544c16-9.12,32-30.864,32-81.696V40
	c0-4.418-3.582-8-8-8H8c-4.418,0-8,3.582-8,8v56c0,50.832,16.04,72.576,32,81.696v92.544c-5.07,4.514-7.979,10.972-8,17.76v136
	c0,13.255,10.745,24,24,24l0,0H64z M40,288c0-4.418,3.582-8,8-8h16c4.418,0,8,3.582,8,8v8H40V288z M16,96V48h16v64h16V48h16v64h16
	V48h16v48c0,26.888-5.192,72-40,72S16,122.888,16,96z M48,184h16v80H48V184z M40,424v-16h16v-16H40v-16h16v-16H40v-16h16v-16H40v-16
	h32v112c0,4.418-3.582,8-8,8H48C43.582,432,40,428.419,40,424z"/>
<path d="M475.392,24.752c-2.811-1.314-6.129-0.884-8.512,1.104l-19.2,16c-20.099,16.699-31.712,41.485-31.68,67.616V248
	c0,4.418,3.582,8,8,8s8,3.582,8,8v9.336c-9.532,3.198-15.967,12.114-16,22.168V432c0,13.255,10.745,24,24,24h16
	c13.255,0,24-10.745,24-24V32C480.001,28.895,478.205,26.069,475.392,24.752z M464,304h-32v-8c0-4.418,3.582-8,8-8h24V304z
	 M457.904,54.16L464,49.08V272h-16v-8c-0.042-10.134-6.445-19.15-16-22.528v-132C431.973,88.099,441.468,67.824,457.904,54.16
	L457.904,54.16z M456,440h-16c-4.418,0-8-3.582-8-8v-16h16v-16h-16v-16h16v-16h-16v-16h16v-16h-16v-16h32v112
	C464,436.419,460.418,440,456,440z"/>
<path d="M96,256c0,83.947,68.053,152,152,152s152-68.053,152-152s-68.053-152-152-152C164.091,104.093,96.093,172.091,96,256z
	 M384,256c0,75.111-60.889,136-136,136s-136-60.889-136-136s60.889-136,136-136C323.076,120.084,383.916,180.924,384,256z"/>
<path d="M152,256c0,53.019,42.981,96,96,96s96-42.981,96-96s-42.981-96-96-96C195.004,160.058,152.057,203.005,152,256z M328,256
	c0,44.183-35.817,80-80,80s-80-35.817-80-80s35.817-80,80-80C292.163,176.049,327.952,211.838,328,256z"/>
<g>
</g>
<g>
</g>
<g>
</g>
<g>
</g>
<g>
</g>
<g>
</g>
<g>
</g>
<g>
</g>
<g>
</g>
<g>
</g>
<g>
</g>
<g>
</g>
<g>
</g>
<g>
</g>
<g>
</g>
</svg>
